<svg xmlns="http://www.w3.org/2000/svg" viewBox="0 0 156.96 170.32">
  <rect width="100%" height="100%" fill="#3fbac2" mask="url(#mask)" rx="24"/>
  <path fill="#fff" d="M34.944 27.105c0-.162 82.782-1.296 83.268-.972 2.106 1.944 3.078 20.088 3.402 41.634-8.586-7.29-21.87-14.904-40.176-15.39-3.078 0-5.508 2.268-5.67 5.346 0 3.078 2.268 5.508 5.346 5.67 22.518.486 35.478 13.446 40.5 19.926 0 28.35-1.296 57.024-2.916 58.644-3.402 2.916-82.134 3.726-84.24 0-1.62-3.078-1.62-31.104-1.296-58.644 16.362 1.296 42.444 6.642 46.98 26.73.81 2.916 3.564 4.86 6.48 4.212 3.078-.81 4.86-3.564 4.212-6.642-5.994-26.892-38.556-33.696-57.348-35.154.486-24.138 1.134-45.198 1.458-45.36z"/>
</svg>