<svg xmlns="http://www.w3.org/2000/svg" viewBox="0 0 156.96 170.32">
  <defs>
    <mask id="logo">
      <rect width="100%" height="100%" fill="#fff" rx="12"/>
      <path d="M.72 0c0-.06 30.66-.48 30.84-.36.78.72 1.14 7.44 1.26 15.42-3.18-2.7-8.1-5.52-14.88-5.7-1.14 0-2.04.84-2.1 1.98 0 1.14.84 2.04 1.98 2.1 8.34.18 13.14 4.98 15 7.38 0 10.5-.48 21.12-1.08 21.72-1.26 1.08-30.42 1.38-31.2 0-.6-1.14-.6-11.52-.48-21.72 6.06.48 15.72 2.46 17.4 9.9.3 1.08 1.32 1.8 2.4 1.56 1.14-.3 1.8-1.32 1.56-2.46C19.2 19.86 7.14 17.34.18 16.8.36 7.86.6.06.72 0z" transform="matrix(2.7 0 0 2.7 33 27.105)"/>
    </mask>
  </defs>
  <rect width="100%" height="100%" fill="#3fbac2" mask="url(#logo)" rx="12"/>
</svg>

