<svg fill="#3fbac2" viewBox="0 0 32 32" xmlns="http://www.w3.org/2000/svg">
  <path d="M29.667 15.76c0-1.885-1.276-3.536-3.104-4.015L30.547 0h-19.74l3.996 11.787c-1.772.516-2.991 2.135-2.996 3.979 0 1.391.693 2.625 1.751 3.385-.421.599-.907 1.152-1.443 1.656-.984.939-2.141 1.683-3.401 2.199-1.115-.751-1.593-2.079-1.161-3.26 4.531-1.412 3.531-8.089-1.208-8.109-2.292.004-4.151 1.859-4.151 4.151 0 1.131.457 2.167 1.203 2.911-.068.125-.131.261-.199.396-.619 1.281-1.323 2.724-1.593 4.344-.536 3.245.344 5.849 2.469 7.323 1.145.808 2.52 1.245 3.927 1.24 2.432 0 4.907-1.224 7.297-2.412 1.708-.839 3.468-1.719 5.197-2.145.641-.156 1.308-.249 2.011-.355 1.427-.203 2.901-.416 4.224-1.187 1.531-.875 2.599-2.385 2.911-4.12.229-1.323 0-2.656-.593-3.828.401-.641.62-1.385.62-2.193zm-1.807 0c0 1.287-1.048 2.333-2.333 2.333-2.209-.005-3.177-2.791-1.444-4.167l.005-.009c.079-.057.163-.115.24-.168 0 0 .016 0 .016-.009.036-.021.072-.047.109-.068.011 0 .016-.005.025-.005.037-.021.084-.036.131-.057s.093-.036.131-.057c.009 0 .015-.005.025-.005.037-.011.079-.031.115-.036.005 0 .027-.011.037-.011.047-.011.083-.021.129-.027h.005l.141-.031c.009 0 .025 0 .036-.011.036 0 .073-.011.115-.011h.041c.047 0 .093-.005.151-.005h.12c.037 0 .068 0 .104.005h.016c.073.011.151.021.224.043 1.083.229 1.86 1.187 1.86 2.296zM13.391 1.855h14.573l-3.344 9.864c-.141.027-.276.073-.417.12l-3.52-7.177-3.532 7.131c-.135-.043-.287-.073-.437-.099zm6.625 13.098c-.172-.855-.609-1.636-1.251-2.224l1.917-3.869 1.937 3.952c-.579.573-.995 1.308-1.161 2.141zm-4.641-1.464c.041-.011.084-.02.131-.025h.025c.037-.011.073-.011.109-.021h.037c.036 0 .068-.011.104-.011h.359c.037 0 .068.011.095.011.02 0 .025 0 .047.011.036.011.063.011.099.016.011 0 .021 0 .041.009l.125.027h.011c.036.011.079.021.115.041.005 0 .016.005.036.005.027.011.063.021.095.036.004 0 .015.011.025.011.036.021.073.032.109.047h.011c.041.016.083.037.12.068h.011c.036.016.072.041.109.063.009 0 .009.011.02.011.037.016.063.047.099.063l.011.011c.109.083.213.176.319.271l.004.005c.417.437.647 1.015.641 1.613-.099 3.011-4.568 3.011-4.667 0-.005-1.067.724-2 1.76-2.26zm-9.12-.068c1.287 0 2.333 1.052 2.333 2.339s-1.047 2.333-2.333 2.333c-1.285 0-2.333-1.047-2.333-2.333s1.048-2.339 2.333-2.339zm21.552 8.038c-.213 1.197-.952 2.239-2.009 2.844-1.011.583-2.256.771-3.557.952-.735.095-1.469.224-2.188.391-1.927.475-3.781 1.396-5.579 2.287-2.296 1.141-4.463 2.213-6.473 2.213-1.031.005-2.036-.312-2.875-.916-2.037-1.407-1.937-4.047-1.693-5.495.219-1.355.839-2.62 1.432-3.833.043-.073.068-.141.105-.213.203.072.416.129.64.167-.355 1.963.645 3.995 2.593 4.995l.349.181.38-.135c1.62-.579 3.125-1.511 4.448-2.76.735-.683 1.38-1.453 1.927-2.292.215.036.428.047.641.047 1.885-.005 3.531-1.276 4.011-3.104h1.557c.473 1.828 2.124 3.104 4.011 3.104.771 0 1.484-.213 2.093-.573.24.693.317 1.417.187 2.141z"/>
</svg>