<!-- Uploaded to: SVG Repo, www.svgrepo.com, Generator: SVG Repo Mixer Tools -->
<svg xmlns="http://www.w3.org/2000/svg" xml:space="preserve" fill="#3fbac2" viewBox="0 0 512 512">
  <path d="M218.195 257.521c0 64.719 4.624 119.1-27.309 151.283-17.961 18.105-46.301 28.772-81.17 28.772-57.192 0-88.947-27.862-109.215-66.416 19.512-12.459 39.452-24.502 59.775-36.154 8.292 23.188 36.291 49.258 67.888 33.21 20.027-10.18 17.715-41.04 17.715-74.537V81.151c-.063-1.044-.125-2.087.732-2.214h71.585l-.001 178.584zm181.532-42.059c-18.247-7.814-40.928-17.058-46.488-33.952-6.233-18.934 4.396-34.533 16.231-39.841 26.023-11.688 57.038 7.556 63.463 27.301 19.583-11.657 39.103-23.384 56.826-36.896-20.826-34.584-51.354-59.342-107.003-57.561-30.64.979-53.657 10.652-70.841 25.088-16.771 14.085-29.721 33.854-31.737 61.989-6.025 84.212 56.988 105.708 110.695 129.137 16.93 7.385 35.751 14.842 43.54 29.517 16.061 30.282-12.389 50.26-36.898 52.397-39.336 3.427-65.858-19.587-81.175-43.54-19.133 11.86-39.938 22.045-58.298 34.683 25.537 44.908 67.409 73.98 132.831 73.793 66.74-.188 116.219-32.366 120.281-92.977 5.523-82.384-56.198-105.495-111.427-129.138z"/>
</svg>